<svg width="17" height="13" viewBox="0 0 17 13" fill="none" xmlns="http://www.w3.org/2000/svg">
<path d="M9.27273 3.25C9.27273 4.11195 8.94708 4.9386 8.36742 5.5481C7.78776 6.15759 7.00158 6.5 6.18182 6.5C5.36206 6.5 4.57587 6.15759 3.99622 5.5481C3.41656 4.9386 3.09091 4.11195 3.09091 3.25C3.09091 2.38805 3.41656 1.5614 3.99622 0.951903C4.57587 0.34241 5.36206 0 6.18182 0C7.00158 0 7.78776 0.34241 8.36742 0.951903C8.94708 1.5614 9.27273 2.38805 9.27273 3.25ZM12.3636 11.375V13H0V11.375C0 9.57938 2.76636 8.125 6.18182 8.125C9.59727 8.125 12.3636 9.57938 12.3636 11.375ZM15.0682 8.53125V9.75H13.9091V8.53125H15.0682ZM13.5227 4.46875H12.3636V4.0625C12.3636 3.41603 12.6079 2.79605 13.0426 2.33893C13.4774 1.88181 14.067 1.625 14.6818 1.625C15.2966 1.625 15.8863 1.88181 16.321 2.33893C16.7558 2.79605 17 3.41603 17 4.0625C17 4.85063 16.6136 5.59 16.0032 6.02063L15.7714 6.175C15.3309 6.5 15.0682 6.99563 15.0682 7.55625V7.71875H13.9091V7.55625C13.9091 6.58938 14.3727 5.6875 15.1377 5.15938L15.3618 5.005C15.6632 4.79375 15.8409 4.44438 15.8409 4.0625C15.8409 3.73927 15.7188 3.42927 15.5014 3.20071C15.284 2.97215 14.9892 2.84375 14.6818 2.84375C14.3744 2.84375 14.0796 2.97215 13.8622 3.20071C13.6448 3.42927 13.5227 3.73927 13.5227 4.0625V4.46875Z" fill="white"/>
</svg>
